HIERARCHY
ROOT Hips
{
	OFFSET -3.958830 18.904000 13.208200
	CHANNELS 6 Xposition Yposition Zposition Zrotation Yrotation Xrotation 
	JOINT LHipJoint
	{
		OFFSET 0.000000 0.000000 0.000000
		CHANNELS 3 Zrotation Yrotation Xrotation
		JOINT LeftUpLeg
		{
			OFFSET 1.800000 -1.400000 0.085000
			CHANNELS 3 Zrotation Yrotation Xrotation
			JOINT LeftLeg
			{
				OFFSET 2.215000 -6.000000 0.000000
				CHANNELS 3 Zrotation Yrotation Xrotation
				JOINT LeftFoot
				{
					OFFSET 2.500000 -6.900000 0.000000
					CHANNELS 3 Zrotation Yrotation Xrotation
					JOINT LeftToeBase
					{
						OFFSET 0.200000 -0.500000 1.950000
						CHANNELS 3 Zrotation Yrotation Xrotation
						End Site
						{
							OFFSET 0.000000 0.000000 0.000000
						}
					}
				}
			}
		}
	}
	JOINT RHipJoint
	{
		OFFSET 0.000000 0.000000 0.000000
		CHANNELS 3 Zrotation Yrotation Xrotation
		JOINT RightUpLeg
		{
			OFFSET -1.800000 -1.400000 0.085000
			CHANNELS 3 Zrotation Yrotation Xrotation
			JOINT RightLeg
			{
				OFFSET -2.215000 -6.000000 0.000000
				CHANNELS 3 Zrotation Yrotation Xrotation
				JOINT RightFoot
				{
					OFFSET -2.500000 -6.900000 0.000000
					CHANNELS 3 Zrotation Yrotation Xrotation
					JOINT RightToeBase
					{
						OFFSET -0.200000 -0.500000 1.950000
						CHANNELS 3 Zrotation Yrotation Xrotation
						End Site
						{
							OFFSET 0.000000 0.000000 0.000000
						}
					}
				}
			}
		}
	}
	JOINT LowerBack
	{
		OFFSET 0.000000 0.000000 0.000000
		CHANNELS 3 Zrotation Yrotation Xrotation
		JOINT Spine
		{
			OFFSET -0.087000 1.940000 -0.288900
			CHANNELS 3 Zrotation Yrotation Xrotation
			JOINT Spine1
			{
				OFFSET 0.000000 1.950000 0.060000
				CHANNELS 3 Zrotation Yrotation Xrotation
				JOINT Neck
				{
					OFFSET 0.000000 0.000000 0.000000
					CHANNELS 3 Zrotation Yrotation Xrotation
					JOINT Neck1
					{
						OFFSET 0.000000 1.600000 0.340000
						CHANNELS 3 Zrotation Yrotation Xrotation
						JOINT Head
						{
							OFFSET 0.000000 1.667000 -0.240000
							CHANNELS 3 Zrotation Yrotation Xrotation
							End Site
							{
								OFFSET 0.000000 0.000000 0.000000
							}
						}
					}
				}
				JOINT LeftShoulder
				{
					OFFSET 0.000000 0.000000 0.000000
					CHANNELS 3 Zrotation Yrotation Xrotation
					JOINT LeftArm
					{
						OFFSET 2.700000 1.550000 -0.730000
						CHANNELS 3 Zrotation Yrotation Xrotation
						JOINT LeftForeArm
						{
							OFFSET 5.450000 0.000000 0.000000
							CHANNELS 3 Zrotation Yrotation Xrotation
							JOINT LeftHand
							{
								OFFSET 3.450000 0.000000 0.000000
								CHANNELS 3 Zrotation Yrotation Xrotation
								JOINT LeftHandIndex1
								{
									OFFSET 0.750000 0.000000 0.000000
									CHANNELS 3 Zrotation Yrotation Xrotation
									End Site
									{
										OFFSET 0.000000 0.000000 0.000000
									}
								}
							}
						}
					}
				}
				JOINT RightShoulder
				{
					OFFSET 0.000000 0.000000 0.000000
					CHANNELS 3 Zrotation Yrotation Xrotation
					JOINT RightArm
					{
						OFFSET -2.700000 1.550000 -0.730000
						CHANNELS 3 Zrotation Yrotation Xrotation
						JOINT RightForeArm
						{
							OFFSET -5.450000 0.000000 0.000000
							CHANNELS 3 Zrotation Yrotation Xrotation
							JOINT RightHand
							{
								OFFSET -3.450000 0.000000 0.000000
								CHANNELS 3 Zrotation Yrotation Xrotation
								JOINT RightHandIndex1
								{
									OFFSET -0.750000 0.000000 0.000000
									CHANNELS 3 Zrotation Yrotation Xrotation
									End Site
									{
										OFFSET 0.000000 0.000000 0.000000
									}
								}
							}
						}
					}
				}
			}
		}
	}
}
MOTION
Frames: 5
Frame Time: 0.016667
0.510390 15.914950 -1.714180 4.594579 -11.056919 3.427021 -15.355058 11.174570 4.390805 -2.095518 -9.994718 -20.419591 -33.520164 24.257507 42.376315 1.588963 11.794937 0.561648 0.244730 0.128070 0.317220 18.542151 -7.627874 4.721776 -5.424629 11.879563 -46.291686 27.194508 -19.819462 46.123503 -1.477063 -8.959403 1.222787 0.130930 -0.135730 0.022470 -3.846187 -3.177172 -9.337272 14.606589 -9.944628 35.967664 -8.651727 -4.603683 1.216127 3.486557 -10.054413 -11.417840 -22.963896 11.058173 32.045214 -11.407030 7.822660 -15.734220 -21.692126 -12.473354 2.655049 -18.680162 -4.978894 -6.082151 -40.788955 -53.287458 17.858499 -3.508834 3.266134 0.459180 -0.083780 0.140770 -0.053860 14.957497 18.028220 8.343025 18.345464 0.422609 -7.768818 58.446918 49.410819 21.612223 2.318442 -1.573917 -0.165570 0.188980 0.031780 -0.261780 
0.524650 15.841150 -1.701180 4.674156 -11.396233 3.104388 -15.348972 11.144213 4.316050 -2.650424 -9.865940 -19.900808 -32.607818 24.288477 43.234806 1.641317 11.802263 0.567179 0.287150 0.187010 0.318380 18.567729 -7.525302 4.862271 -6.083469 12.453984 -47.617957 27.393092 -20.879768 48.512113 -1.621651 -9.466011 1.082383 0.148040 -0.164860 0.003740 -3.904511 -3.197091 -9.354950 15.622465 -10.498315 36.449481 -8.679290 -4.792967 0.257808 3.384622 -10.871811 -11.949657 -25.378145 11.480568 31.861742 -10.535800 6.765710 -15.881580 -22.538785 -13.202588 3.109822 -20.782693 -4.360071 -6.359181 -33.904511 -48.824905 12.912152 -3.420276 3.234556 0.456420 -0.126980 0.162690 -0.026250 16.140547 19.397005 8.591447 19.958634 1.282738 -7.992750 59.800388 48.185922 21.330849 2.353830 -1.583738 -0.134880 0.189710 -0.005920 -0.235840 
0.544690 15.715510 -1.665780 4.971659 -11.416996 2.589220 -15.353038 11.106238 4.221187 -3.383827 -9.655063 -19.022567 -31.587919 24.783319 44.840954 1.735425 11.992708 0.517956 0.291440 0.189310 0.332890 18.590039 -7.330461 5.077721 -8.204160 12.963633 -49.372408 29.568249 -23.231016 50.948283 -1.853006 -10.299677 0.849358 0.127970 -0.207110 -0.007580 -3.944818 -3.304984 -9.423015 17.259434 -11.353478 36.632527 -9.030265 -5.090918 -0.705048 3.787076 -11.140218 -12.909854 -27.249249 12.629806 33.275161 -11.550600 7.052690 -15.301730 -24.108943 -14.776107 4.058287 -23.222963 -3.084612 -6.368815 -27.003612 -41.308248 8.013946 -3.340499 3.165824 0.467760 -0.161390 0.189400 -0.028370 17.054688 21.332607 8.928664 23.793888 2.792804 -8.539602 61.410341 47.890519 21.549880 2.397326 -1.570876 -0.115070 0.174470 -0.023650 -0.234120 
0.545050 15.625290 -1.632030 5.507218 -11.022095 1.435830 -15.343081 11.057623 4.136206 -4.368739 -9.423489 -17.937508 -30.275566 25.427056 47.053283 1.839246 12.284026 0.434089 0.315360 0.224740 0.350330 18.621493 -7.198729 5.250254 -10.501241 13.300860 -50.447591 31.799689 -25.454164 52.830111 -2.072079 -11.029755 0.649739 0.129510 -0.243200 -0.001410 -4.010570 -3.298538 -9.472894 18.705630 -12.145270 37.197309 -9.655459 -5.439484 -1.613716 3.942510 -11.159560 -13.444625 -28.614863 14.260332 35.113152 -12.585620 7.671980 -15.199650 -26.883052 -16.281099 4.756306 -23.809385 -2.164374 -5.818039 -20.416863 -33.693515 4.539451 -3.285760 3.110704 0.475620 -0.183170 0.225510 -0.023530 19.509361 22.842636 8.776705 27.709834 5.136823 -8.712602 62.715256 47.674713 21.825468 2.429781 -1.572587 -0.086130 0.163560 -0.041260 -0.227950 
0.511000 15.529740 -1.591600 6.068228 -9.986591 0.421222 -15.348024 11.013062 4.130863 -4.619012 -9.246990 -17.700306 -29.834826 27.084456 49.873132 2.015787 12.890121 0.274470 0.318560 0.234000 0.330020 18.628772 -7.074285 5.335004 -12.370686 13.571807 -50.408791 34.452863 -27.108522 53.006505 -2.198693 -11.437217 0.551365 0.128130 -0.240270 -0.005490 -4.006503 -3.360356 -9.533259 19.544112 -12.185454 36.673353 -9.021915 -5.542347 -1.852579 3.613681 -11.147176 -14.031828 -29.796269 15.412354 37.138643 -12.020960 7.376670 -13.856350 -28.500063 -17.360464 5.721976 -24.685026 -0.631572 -4.989357 -17.003917 -27.688190 2.819607 -3.268499 3.062013 0.471120 -0.189890 0.226610 -0.012570 21.847157 24.083752 8.579974 31.512081 7.493799 -8.595573 63.600246 48.891973 22.901326 2.447896 -1.584565 -0.074710 0.163560 -0.041900 -0.211700 
